<?xml version="1.0" encoding="utf-8"?>
<!-- Generator: Adobe Illustrator 24.3.0, SVG Export Plug-In . SVG Version: 6.00 Build 0)  -->
<svg version="1.1" id="Layer_1" xmlns="http://www.w3.org/2000/svg" xmlns:xlink="http://www.w3.org/1999/xlink" x="0px" y="0px"
	 viewBox="0 0 425 425" enable-background="new 0 0 425 425" xml:space="preserve">
<g>
	<g>
		<linearGradient id="SVGID_1_" gradientUnits="userSpaceOnUse" x1="-1643.1217" y1="1228.0839" x2="364.8854" y2="136.0818">
			<stop  offset="0" style="stop-color:#00C9FF"/>
			<stop  offset="1" style="stop-color:#3B72DE"/>
		</linearGradient>
		<path fill="url(#SVGID_1_)" d="M251.412,333.627c-0.001,0-0.001,0-0.001,0c-6.635,0-20.524-1.104-39.02-8.489
			c-22.628-9.036-44.973-24.489-66.415-45.93c-42.707-42.707-58.403-74.463-54.172-109.602c0.521-4.602,1.648-9.14,3.443-13.873
			c0.006-0.016,0.014-0.033,0.02-0.049c1.925-4.913,12.92-18.638,16.243-22.728c0.104-0.129,0.218-0.254,0.335-0.372
			c4.056-4.057,9.41-6.291,15.08-6.291c5.44,0,10.521,2.084,14.305,5.867l30.582,30.588c7.983,7.993,7.799,21.174-0.411,29.385
			l-5.081,5.088l-7.733,7.722c5.253,9.456,12.452,22.345,25.903,35.797c13.472,13.479,26.355,20.654,35.802,25.889l12.802-12.799
			c4.051-4.051,9.402-6.284,15.072-6.284c5.435,0,10.516,2.079,14.305,5.853l30.588,30.592c7.975,8,7.79,21.182-0.404,29.394
			c-0.12,0.121-0.247,0.235-0.378,0.342c-4.093,3.321-17.825,14.306-22.7,16.211c-4.596,1.784-9.152,2.928-13.939,3.501
			c-0.022,0.002-0.045,0.005-0.066,0.007C255.061,333.502,253.64,333.627,251.412,333.627z M104.362,159.228
			c-1.498,3.956-2.435,7.714-2.86,11.492c-0.002,0.012-0.003,0.024-0.005,0.036c-3.836,31.798,11.05,61.22,51.382,101.551
			c47.843,47.84,87.513,51.559,98.532,51.559l0,0c1.779,0,2.84-0.095,3.103-0.121c3.949-0.477,7.718-1.425,11.519-2.9
			c2.339-0.914,12.089-8.212,19.875-14.521c4.243-4.419,4.369-11.294,0.242-15.433l-30.576-30.58
			c-1.939-1.932-4.574-3.001-7.408-3.001c-3.061,0-5.962,1.217-8.17,3.424l-15.407,15.404c-1.536,1.536-3.901,1.872-5.804,0.824
			c-0.986-0.542-2.004-1.109-3.076-1.711c-9.945-5.511-23.599-13.075-38.121-27.608c-14.514-14.511-22.102-28.176-27.644-38.154
			l-0.293-0.53c-0.466-0.842-0.916-1.658-1.361-2.438c-1.095-1.913-0.773-4.32,0.787-5.877l10.341-10.325l5.077-5.086
			c4.409-4.409,4.592-11.398,0.412-15.584l-30.579-30.586c-1.939-1.938-4.569-3.008-7.402-3.008c-2.986,0-5.821,1.159-8.01,3.269
			C112.614,147.09,105.321,156.825,104.362,159.228z"/>
	</g>
	<g>
		<g>
			<linearGradient id="SVGID_2_" gradientUnits="userSpaceOnUse" x1="-1659.9901" y1="1197.0233" x2="347.992" y2="105.0348">
				<stop  offset="0" style="stop-color:#00C9FF"/>
				<stop  offset="1" style="stop-color:#3B72DE"/>
			</linearGradient>
			<path fill="url(#SVGID_2_)" d="M281.513,148.604c-1.249,0-2.499-0.477-3.451-1.43c-1.907-1.906-1.907-4.996,0-6.903
				l11.114-11.115c1.907-1.906,4.997-1.906,6.902,0c1.907,1.906,1.907,4.997,0,6.903l-11.114,11.115
				C284.011,148.127,282.762,148.604,281.513,148.604z"/>
		</g>
		<g>
			<linearGradient id="SVGID_3_" gradientUnits="userSpaceOnUse" x1="-1652.4694" y1="1210.8767" x2="355.526" y2="118.881">
				<stop  offset="0" style="stop-color:#00C9FF"/>
				<stop  offset="1" style="stop-color:#3B72DE"/>
			</linearGradient>
			<path fill="url(#SVGID_3_)" d="M227.724,202.392c-1.25,0-2.499-0.477-3.452-1.43c-1.904-1.906-1.904-4.997,0-6.903l40.022-40.021
				c1.905-1.907,4.996-1.907,6.902,0c1.905,1.906,1.905,4.997,0,6.902l-40.021,40.021
				C230.223,201.916,228.973,202.392,227.724,202.392z"/>
		</g>
		<g>
			<linearGradient id="SVGID_4_" gradientUnits="userSpaceOnUse" x1="-1693.0807" y1="1136.1969" x2="314.9104" y2="44.2035">
				<stop  offset="0" style="stop-color:#00C9FF"/>
				<stop  offset="1" style="stop-color:#3B72DE"/>
			</linearGradient>
			<path fill="url(#SVGID_4_)" d="M204.859,116.731c-2.696,0-4.88-2.185-4.88-4.881V96.254c0-2.696,2.184-4.881,4.88-4.881
				s4.881,2.185,4.881,4.881v15.596C209.74,114.546,207.556,116.731,204.859,116.731z"/>
		</g>
		<g>
			<linearGradient id="SVGID_5_" gradientUnits="userSpaceOnUse" x1="-1669.7407" y1="1179.1348" x2="338.2634" y2="87.1343">
				<stop  offset="0" style="stop-color:#00C9FF"/>
				<stop  offset="1" style="stop-color:#3B72DE"/>
			</linearGradient>
			<path fill="url(#SVGID_5_)" d="M204.859,192.921c-2.696,0-4.882-2.186-4.882-4.881v-56.715c0-2.695,2.186-4.881,4.882-4.881
				s4.881,2.186,4.881,4.881v56.715C209.74,190.736,207.555,192.921,204.859,192.921z"/>
		</g>
		<g>
			<linearGradient id="SVGID_6_" gradientUnits="userSpaceOnUse" x1="-1617.7195" y1="1274.797" x2="390.2849" y2="182.7964">
				<stop  offset="0" style="stop-color:#00C9FF"/>
				<stop  offset="1" style="stop-color:#3B72DE"/>
			</linearGradient>
			<path fill="url(#SVGID_6_)" d="M328.981,225.257h-15.598c-2.695,0-4.881-2.186-4.881-4.881s2.186-4.881,4.881-4.881h15.598
				c2.695,0,4.881,2.186,4.881,4.881S331.677,225.257,328.981,225.257z"/>
		</g>
		<g>
			<linearGradient id="SVGID_7_" gradientUnits="userSpaceOnUse" x1="-1630.4166" y1="1251.4482" x2="377.5848" y2="159.4493">
				<stop  offset="0" style="stop-color:#00C9FF"/>
				<stop  offset="1" style="stop-color:#3B72DE"/>
			</linearGradient>
			<path fill="url(#SVGID_7_)" d="M293.907,225.257h-56.712c-2.695,0-4.881-2.186-4.881-4.881s2.186-4.881,4.881-4.881h56.712
				c2.695,0,4.881,2.186,4.881,4.881S296.602,225.257,293.907,225.257z"/>
		</g>
	</g>
</g>
</svg>
